<svg id="Layer_1" data-name="Layer 1" xmlns="http://www.w3.org/2000/svg" viewBox="0 0 300 300"><defs><style>.cls-1{fill:#31caff;}.cls-2{fill:#fff;}</style></defs><title>lock</title><circle class="cls-1" cx="150.4" cy="149.47" r="84.91" transform="matrix(0.09, -1, 1, 0.09, -11.4, 286.5)"/><path class="cls-2" d="M183,140.61h-6V126.49c-1.41-24.32-25.68-24.32-25.68-24.32-26.62,0-26.5,24.73-26.5,24.73v13.71h-7c-1.75,0-3.18,1-3.18,2.35v48.19c0,1.3,1.43,2.36,3.18,2.36H183c1.76,0,3.18-1.06,3.18-2.36V143C186.14,141.66,184.72,140.61,183,140.61Zm-29.45,27.83v7.45a3.11,3.11,0,1,1-6.22,0v-7.45a7.29,7.29,0,1,1,6.22,0Zm13-27.83H135.24V126.74h0v-.53s-.07-14.83,15.89-14.83c0,0,14.54,0,15.39,14.58Z"/></svg>