<?xml version="1.0" encoding="utf-8"?>
<!-- Generator: Adobe Illustrator 23.0.1, SVG Export Plug-In . SVG Version: 6.00 Build 0)  -->
<svg version="1.1" id="Layer_1" xmlns="http://www.w3.org/2000/svg" xmlns:xlink="http://www.w3.org/1999/xlink" x="0px" y="0px"
	 viewBox="0 0 300 300" style="enable-background:new 0 0 300 300;" xml:space="preserve">
<style type="text/css">
	.st0{fill:#FFFFFF;}
</style>
<g>
	<path class="st0" d="M275.5,158.8H106.2c-4.8,0-8.8-3.9-8.8-8.8s3.9-8.8,8.8-8.8h169.2c4.8,0,8.8,3.9,8.8,8.8
		S280.3,158.8,275.5,158.8z"/>
	<path class="st0" d="M152.9,205.4c-2.2,0-4.5-0.9-6.2-2.6L100,156.2c-3.4-3.4-3.4-9,0-12.4l46.7-46.7c3.4-3.4,9-3.4,12.4,0
		c3.4,3.4,3.4,9,0,12.4L118.6,150l40.5,40.5c3.4,3.4,3.4,9,0,12.4C157.4,204.6,155.2,205.4,152.9,205.4z"/>
	<path class="st0" d="M144.2,278.4c-70.8,0-128.4-57.6-128.4-128.4S73.4,21.6,144.2,21.6c53.1,0,100,32,119.5,81.4
		c1.8,4.5-0.4,9.6-4.9,11.4c-4.5,1.8-9.6-0.4-11.4-4.9C230.5,66.7,190,39.1,144.2,39.1C83,39.1,33.3,88.9,33.3,150
		S83,260.9,144.2,260.9c45.9,0,86.4-27.6,103.2-70.3c1.8-4.5,6.9-6.7,11.4-4.9c4.5,1.8,6.7,6.9,4.9,11.4
		C244.2,246.4,197.3,278.4,144.2,278.4z"/>
</g>
</svg>
