<svg id="Layer_1" data-name="Layer 1" xmlns="http://www.w3.org/2000/svg" viewBox="0 0 200 200"><defs><style>.cls-1{fill:#31caff;}.cls-2{fill:#fff;}</style></defs><title>log out</title><circle class="cls-1" cx="102.14" cy="102.55" r="78.75" transform="translate(-13.13 190.08) rotate(-82.33)"/><path class="cls-2" d="M114.16,87.64h7.74c.29,0,.35-.14.35-.39,0-.52,0-1,0-1.55,0-3.93,0-7.87,0-11.8a4.15,4.15,0,0,0-1.74-3.57,4.52,4.52,0,0,0-2.8-.74H68.45a4.06,4.06,0,0,0-4.16,4.15q0,28.31,0,56.61a4.31,4.31,0,0,0,2.52,4.16c4.21,2.15,8.39,4.33,12.59,6.5,5.85,3,11.7,6.07,17.56,9.07a2.72,2.72,0,0,0,1.53.28,2,2,0,0,0,1.65-2.21V133.66c0-.75,0-.75.76-.75H118a4,4,0,0,0,4.27-4.2c0-7.15,0-14.28,0-21.43,0-.41-.13-.52-.53-.52-2.29,0-4.59,0-6.88,0-.68,0-.68,0-.68.66v15.11a2.05,2.05,0,0,1-2.31,2.3H100.93c-.73,0-.73,0-.73-.73q0-16.67,0-33.32a4.11,4.11,0,0,0-2.42-4L80.67,78.05l-.47-.25a1,1,0,0,1,.52-.13h31.05c1.67,0,2.38.74,2.39,2.41Z"/><path class="cls-2" d="M132.66,92.41l-2.24-2.18c-1.2-1.17-2.39-2.34-3.58-3.53A4.06,4.06,0,0,1,127.93,80a4,4,0,0,1,4.55.86c2,1.91,3.92,3.88,5.87,5.83,2.38,2.38,4.75,4.76,7.14,7.13,2,2,2,4.37,0,6.4q-6.31,6.3-12.62,12.62a4.23,4.23,0,0,1-4.34,1.39,4.14,4.14,0,0,1-1.69-7c1.76-1.81,3.57-3.55,5.37-5.32a3.41,3.41,0,0,1,.49-.31,2.53,2.53,0,0,1-.13-.22H109.9a4.42,4.42,0,0,1-.66-8.77,27.52,27.52,0,0,1,3.15,0h20.18l.09-.15"/></svg>