<?xml version="1.0" encoding="UTF-8"?>
<svg width="256px" height="256px" viewBox="0 0 256 256" version="1.1" xmlns="http://www.w3.org/2000/svg" xmlns:xlink="http://www.w3.org/1999/xlink">
    <!-- Generator: Sketch 48.1 (47250) - http://www.bohemiancoding.com/sketch -->
    <title>Page 1</title>
    <desc>Created with Sketch.</desc>
    <defs>
        <polygon id="path-1" points="6.36483415e-05 0.302 255.698 0.302 255.698 256 6.36483415e-05 256"></polygon>
    </defs>
    <g id="Page-1" stroke="none" stroke-width="1" fill="none" fill-rule="evenodd">
        <g transform="translate(0.000000, -1.000000)">
            <g id="Group-3" transform="translate(0.000000, 0.698000)">
                <mask id="mask-2" fill="white">
                    <use xlink:href="#path-1"></use>
                </mask>
                <g id="Clip-2"></g>
                <path d="M231.2346,52.9537 C189.7046,-4.1443 109.7506,-16.7643 52.6526,24.7657 C-4.4454,66.2957 -17.0664,146.2497 24.4636,203.3477 C65.9946,260.4457 145.9486,273.0667 203.0466,231.5357 C260.1446,190.0057 272.7646,110.0517 231.2346,52.9537" id="Fill-1" fill="#2C3039" mask="url(#mask-2)"></path>
            </g>
            <path d="M220.4613,61.4876 C183.2593,10.3396 111.6363,-0.9664 60.4883,36.2366 C9.3403,73.4396 -1.9657,145.0616 35.2373,196.2096 C72.4403,247.3576 144.0623,258.6636 195.2103,221.4606 C246.3583,184.2586 257.6643,112.6356 220.4613,61.4876" id="Fill-4" fill="#D1DAD9"></path>
            <path d="M218.4397,194.5198 C232.0397,175.7658 239.3037,153.4028 239.7027,130.7328 L130.6257,130.7898 L218.4397,194.5198 Z" id="Fill-6" fill="#E53A34"></path>
            <path d="M160.5098,21.853 C138.8188,15.25 115.3058,15.272 93.2748,22.435 L126.8578,125.609 L160.5098,21.853 Z" id="Fill-8" fill="#00ABC1"></path>
            <path d="M35.9119,65.0757 C22.8999,83.8327 16.0889,106.0027 15.9819,128.4037 L123.0939,128.3467 L35.9119,65.0757 Z" id="Fill-10" fill="#D6DE23"></path>
            <path d="M90.9555,23.2168 C80.8745,26.7418 71.1295,31.7748 62.0475,38.3798 C52.3045,45.4668 44.0495,53.8358 37.3295,63.0808 L124.5315,126.3668 L90.9555,23.2168 Z" id="Fill-12" fill="#9D519F"></path>
            <path d="M93.8162,235.4142 C115.1602,242.2122 138.3502,242.5612 160.2032,235.9592 L126.8622,133.5272 L93.8162,235.4142 Z" id="Fill-14" fill="#465A65"></path>
            <path d="M217.5855,62.0665 C203.3045,42.8685 184.0135,29.5455 162.8425,22.5925 L129.1855,126.3645 L217.5855,62.0665 Z" id="Fill-16" fill="#F58C1E"></path>
            <path d="M162.538,235.2253 C173.404,231.6793 183.909,226.4033 193.651,219.3173 C202.733,212.7113 210.522,204.9903 216.982,196.4853 L129.189,132.7703 L162.538,235.2253 Z" id="Fill-18" fill="#EB008B"></path>
            <path d="M38.1131,195.6309 C52.0861,214.4159 70.8571,227.5759 91.4921,234.6479 L124.5341,132.7729 L38.1131,195.6309 Z" id="Fill-20" fill="#FFDD40"></path>
            <path d="M239.7177,128.2856 C239.6237,106.0016 232.8907,83.5446 219.0247,64.0456 L130.6247,128.3426 L239.7177,128.2856 Z" id="Fill-22" fill="#7DB342"></path>
            <path d="M15.996,130.8502 C16.367,152.6612 23.107,174.5722 36.674,193.6522 L123.095,130.7942 L15.996,130.8502 Z" id="Fill-24" fill="#47BA82"></path>
            <path d="M135.2184,123.3409 C131.9304,118.8209 125.6004,117.8219 121.0804,121.1089 C116.5604,124.3969 115.5614,130.7269 118.8494,135.2469 C122.1364,139.7679 128.4664,140.7669 132.9864,137.4789 C137.5074,134.1909 138.5064,127.8609 135.2184,123.3409" id="Fill-26" fill="#2C3039"></path>
            <path d="M131.8183,125.814 C129.8963,123.171 126.1963,122.587 123.5533,124.509 C120.9113,126.431 120.3273,130.132 122.2493,132.774 C124.1713,135.417 127.8713,136.001 130.5133,134.079 C133.1563,132.157 133.7403,128.456 131.8183,125.814" id="Fill-28" fill="#FED438"></path>
            <path d="M91.4736,11.2969 C89.9806,10.2139 87.8926,10.5449 86.8086,12.0379 C85.7246,13.5309 86.0566,15.6199 87.5496,16.7029 C89.0426,17.7869 91.1316,17.4549 92.2146,15.9619 C93.2986,14.4689 92.9666,12.3799 91.4736,11.2969" id="Fill-30" fill="#FED438"></path>
            <path d="M56.7008,28.0942 C54.9458,27.5252 53.0618,28.4862 52.4928,30.2412 C51.9238,31.9952 52.8848,33.8792 54.6398,34.4482 C56.3948,35.0172 58.2778,34.0562 58.8478,32.3022 C59.4168,30.5472 58.4558,28.6632 56.7008,28.0942" id="Fill-32" fill="#FED438"></path>
            <path d="M28.8205,54.8149 C26.9755,54.8159 25.4815,56.3119 25.4825,58.1569 C25.4835,60.0009 26.9795,61.4959 28.8235,61.4949 C30.6685,61.4939 32.1635,59.9979 32.1625,58.1529 C32.1615,56.3089 30.6655,54.8139 28.8205,54.8149" id="Fill-34" fill="#FED438"></path>
            <path d="M10.5619,88.8432 C8.8079,89.4142 7.8489,91.2992 8.4199,93.0532 C8.9909,94.8072 10.8759,95.7662 12.6299,95.1952 C14.3839,94.6242 15.3429,92.7392 14.7719,90.9852 C14.2009,89.2312 12.3159,88.2722 10.5619,88.8432" id="Fill-36" fill="#FED438"></path>
            <path d="M3.7123,126.8482 C2.2203,127.9332 1.8903,130.0222 2.9763,131.5142 C4.0613,133.0062 6.1503,133.3352 7.6413,132.2502 C9.1333,131.1652 9.4633,129.0762 8.3783,127.5852 C7.2933,126.0932 5.2043,125.7632 3.7123,126.8482" id="Fill-38" fill="#FED438"></path>
            <path d="M8.9422,165.1098 C7.8592,166.6028 8.1902,168.6918 9.6832,169.7748 C11.1762,170.8588 13.2652,170.5268 14.3482,169.0338 C15.4322,167.5408 15.1002,165.4518 13.6072,164.3688 C12.1142,163.2848 10.0262,163.6168 8.9422,165.1098" id="Fill-40" fill="#FED438"></path>
            <path d="M25.7396,199.8827 C25.1706,201.6377 26.1316,203.5207 27.8866,204.0907 C29.6406,204.6597 31.5246,203.6987 32.0936,201.9437 C32.6626,200.1887 31.7016,198.3047 29.9466,197.7357 C28.1926,197.1667 26.3086,198.1277 25.7396,199.8827" id="Fill-42" fill="#FED438"></path>
            <path d="M52.4602,227.7629 C52.4612,229.6079 53.9572,231.1019 55.8022,231.1009 C57.6462,231.0999 59.1412,229.6039 59.1402,227.7599 C59.1392,225.9149 57.6432,224.4199 55.7982,224.4209 C53.9542,224.4219 52.4592,225.9179 52.4602,227.7629" id="Fill-44" fill="#FED438"></path>
            <path d="M86.4885,246.0215 C87.0595,247.7755 88.9445,248.7345 90.6985,248.1635 C92.4525,247.5925 93.4115,245.7075 92.8405,243.9535 C92.2695,242.1995 90.3845,241.2405 88.6305,241.8115 C86.8765,242.3825 85.9175,244.2675 86.4885,246.0215" id="Fill-46" fill="#FED438"></path>
            <path d="M124.4935,252.8711 C125.5785,254.3631 127.6675,254.6931 129.1595,253.6071 C130.6515,252.5221 130.9805,250.4331 129.8955,248.9421 C128.8105,247.4501 126.7215,247.1201 125.2305,248.2051 C123.7385,249.2901 123.4085,251.3791 124.4935,252.8711" id="Fill-48" fill="#FED438"></path>
            <path d="M162.7551,247.6412 C164.2481,248.7252 166.3371,248.3932 167.4201,246.9002 C168.5041,245.4072 168.1721,243.3182 166.6791,242.2352 C165.1861,241.1512 163.0971,241.4832 162.0141,242.9762 C160.9301,244.4692 161.2621,246.5582 162.7551,247.6412" id="Fill-50" fill="#FED438"></path>
            <path d="M197.528,230.8439 C199.283,231.4129 201.167,230.4519 201.736,228.6969 C202.305,226.9429 201.344,225.0589 199.589,224.4899 C197.834,223.9209 195.95,224.8819 195.381,226.6359 C194.812,228.3909 195.773,230.2749 197.528,230.8439" id="Fill-52" fill="#FED438"></path>
            <path d="M225.4082,204.1232 C227.2532,204.1222 228.7472,202.6262 228.7462,200.7812 C228.7452,198.9362 227.2492,197.4422 225.4042,197.4432 C223.5602,197.4442 222.0652,198.9402 222.0662,200.7852 C222.0672,202.6292 223.5632,204.1242 225.4082,204.1232" id="Fill-54" fill="#FED438"></path>
            <path d="M243.6668,170.0949 C245.4208,169.5239 246.3798,167.6389 245.8088,165.8849 C245.2378,164.1309 243.3538,163.1719 241.5988,163.7429 C239.8448,164.3139 238.8858,166.1989 239.4568,167.9529 C240.0278,169.7069 241.9128,170.6659 243.6668,170.0949" id="Fill-56" fill="#FED438"></path>
            <path d="M250.5164,132.0899 C252.0084,131.0049 252.3374,128.9159 251.2524,127.4239 C250.1674,125.9319 248.0784,125.6029 246.5874,126.6879 C245.0954,127.7729 244.7654,129.8619 245.8504,131.3539 C246.9354,132.8449 249.0244,133.1749 250.5164,132.0899" id="Fill-58" fill="#FED438"></path>
            <path d="M245.2865,93.8283 C246.3695,92.3353 246.0385,90.2463 244.5455,89.1633 C243.0525,88.0793 240.9635,88.4113 239.8805,89.9043 C238.7965,91.3973 239.1285,93.4863 240.6215,94.5693 C242.1145,95.6533 244.2035,95.3213 245.2865,93.8283" id="Fill-60" fill="#FED438"></path>
            <path d="M228.4892,59.0555 C229.0582,57.3005 228.0972,55.4165 226.3422,54.8475 C224.5882,54.2785 222.7042,55.2395 222.1352,56.9945 C221.5662,58.7495 222.5272,60.6325 224.2812,61.2025 C226.0362,61.7715 227.9202,60.8105 228.4892,59.0555" id="Fill-62" fill="#FED438"></path>
            <path d="M201.7685,31.1752 C201.7675,29.3302 200.2715,27.8362 198.4265,27.8372 C196.5825,27.8382 195.0875,29.3342 195.0885,31.1782 C195.0895,33.0232 196.5855,34.5182 198.4305,34.5172 C200.2745,34.5162 201.7695,33.0202 201.7685,31.1752" id="Fill-64" fill="#FED438"></path>
            <path d="M167.7402,12.9166 C167.1692,11.1626 165.2842,10.2036 163.5302,10.7746 C161.7762,11.3456 160.8172,13.2306 161.3882,14.9846 C161.9592,16.7386 163.8442,17.6976 165.5982,17.1266 C167.3522,16.5556 168.3112,14.6706 167.7402,12.9166" id="Fill-66" fill="#FED438"></path>
            <path d="M129.8111,5.5203 C128.3181,4.4373 126.2301,4.7683 125.1461,6.2613 C124.0621,7.7543 124.3941,9.8433 125.8871,10.9263 C127.3801,12.0103 129.4691,11.6783 130.5521,10.1853 C131.6361,8.6923 131.3041,6.6043 129.8111,5.5203" id="Fill-68" fill="#FED438"></path>
        </g>
    </g>
</svg>